<svg version="1.1" xmlns="http://www.w3.org/2000/svg" xmlns:xlink="http://www.w3.org/1999/xlink" width="20.17485" height="20.4072" viewBox="0,0,20.17485,20.4072"><defs><linearGradient x1="320" y1="169.7964" x2="320" y2="190.2036" gradientUnits="userSpaceOnUse" id="color-1"><stop offset="0" stop-color="#6e3800"/><stop offset="1" stop-color="#f04f00"/></linearGradient><linearGradient x1="320" y1="169.7964" x2="320" y2="190.2036" gradientUnits="userSpaceOnUse" id="color-2"><stop offset="0" stop-color="#6e3800"/><stop offset="1" stop-color="#98ab00"/></linearGradient></defs><g transform="translate(-309.91257,-169.7964)"><g data-paper-data="{&quot;isPaintingLayer&quot;:true}" fill="url(#color-1)" fill-rule="nonzero" stroke="url(#color-2)" stroke-width="0" stroke-linecap="butt" stroke-linejoin="miter" stroke-miterlimit="10" stroke-dasharray="" stroke-dashoffset="0" style="mix-blend-mode: normal"><path d="M319.98819,189.86281c-0.18042,-1.96855 -0.91812,-3.90102 -2.09685,-5.47667c-1.80818,-2.42561 -4.49038,-3.9772 -7.46126,-4.32601c-0.27664,-0.03207 -0.50918,-0.06415 -0.5172,-0.07217c-0.00802,-0.00802 0.13632,-0.02807 0.32074,-0.0401c0.71766,-0.05613 1.66385,-0.26461 2.47372,-0.54526c1.13062,-0.3889 1.97657,-0.84195 3.00696,-1.60371c0.59337,-0.44102 1.67989,-1.51951 2.10887,-2.10086c1.22283,-1.64781 1.94449,-3.47604 2.14897,-5.42054l0.04811,-0.48111l0.05212,0.46107c0.28065,2.57395 1.39523,4.85523 3.2435,6.6594c0.76176,0.73771 1.56763,1.33108 2.47372,1.8162c1.20278,0.64549 2.67418,1.08651 4.05738,1.22283c0.36083,0.03207 0.37687,0.02806 -0.38088,0.12429c-1.82422,0.23655 -3.6725,0.99831 -5.14791,2.1209c-2.40556,1.83224 -3.91305,4.4984 -4.24582,7.52139l-0.05212,0.48111z"/></g></g></svg>