<svg version="1.1" xmlns="http://www.w3.org/2000/svg" xmlns:xlink="http://www.w3.org/1999/xlink" width="1077.07357" height="904.4009" viewBox="0,0,1077.07357,904.4009"><g transform="translate(194.05217,257.93619)"><g data-paper-data="{&quot;isPaintingLayer&quot;:true}" fill-rule="nonzero" stroke="#000000" stroke-width="3.5" stroke-linecap="butt" stroke-linejoin="miter" stroke-miterlimit="10" stroke-dasharray="" stroke-dashoffset="0" style="mix-blend-mode: normal"><path d="M296.0788,180c0,-13.21131 10.70989,-23.9212 23.9212,-23.9212c13.21131,0 23.9212,10.70989 23.9212,23.9212c0,13.21131 -10.70989,23.9212 -23.9212,23.9212c-13.21131,0 -23.9212,-10.70989 -23.9212,-23.9212z" fill="none"/><path d="M-12.55159,155.14071v-188.55535h655.72233v188.55535z" fill="#000000"/><path d="M343.9212,405.60976v-365.85366h373.35835v365.85366z" fill="#000000"/><path d="M-5.0469,407.48593v-202.62664h639.77486v202.62664z" fill="#000000"/><path d="M-31.31332,455.32833v-558.16135h325.51595v558.16135z" fill="#000000"/><path d="M336.79031,159.82556v-16.58113h29.01698v16.58113z" fill="#000000"/><path d="M329.48672,157.25944v-6.11923h14.015v6.11923z" fill="#000000"/><path d="M343.69911,167.72134v-15.39676h11.25148v15.39676z" fill="#000000"/><path d="M337.38249,161.20733v-10.26451h7.50099v10.26451z" fill="#000000"/><path d="M340.7382,166.73437v-11.44887h3.3557v11.44887z" fill="#000000"/><path d="M341.13298,212.13508v-17.37071h8.88275v17.37071z" fill="#000000"/><path d="M335.40855,208.38459v-7.69838h9.27754v7.69838z" fill="#000000"/><path d="M329.28932,208.18719v-5.32965h9.67233v5.32965z" fill="#000000"/><path d="M338.96165,201.27839v-3.75049h5.72444v3.75049z" fill="#000000"/><path d="M293.36354,199.69923v-10.26451h3.75049v10.26451z" fill="#000000"/><path d="M296.12706,206.21325v-2.96092h15.39676v2.96092z" fill="#000000"/><path d="M298.4958,203.25233v-7.30359h2.17134v7.30359z" fill="#000000"/><path d="M301.65411,203.84451v-4.73747h2.36873v4.73747z" fill="#000000"/><path d="M294.54791,174.03796v-19.73944h0.59218v19.73944z" fill="#000000"/><path d="M295.14009,161.9969v-1.97394h5.92183v1.97394z" fill="#000000"/><path d="M296.71925,158.4438v-1.57916h10.4619v1.57916z" fill="#000000"/><path d="M297.11403,167.52395v-6.51402h1.18437v6.51402z" fill="#000000"/><path d="M301.8515,161.60211v-4.14528h1.18437v4.14528z" fill="#000000"/><path d="M-192.30217,511.08108v-651.65165h162.16216v651.65165z" fill="#000000"/><path d="M195.08522,-35.46547v-220.72072h630.63063v220.72072z" fill="#000000"/><path d="M638.02816,532.1021v-710.21021h243.24324v710.21021z" fill="#000000"/><path d="M270.16029,644.71471v-265.76577h475.97598v265.76577z" fill="#000000"/></g></g></svg>